<?xml version="1.0" encoding="utf-8"?>
<!-- Generator: Adobe Illustrator 17.0.0, SVG Export Plug-In . SVG Version: 6.00 Build 0)  -->
<!DOCTYPE svg PUBLIC "-//W3C//DTD SVG 1.1//EN" "http://www.w3.org/Graphics/SVG/1.1/DTD/svg11.dtd">
<svg version="1.1" id="Layer_1" xmlns="http://www.w3.org/2000/svg" xmlns:xlink="http://www.w3.org/1999/xlink" x="0px" y="0px"
	 width="1000px" height="1000px" viewBox="0 0 1000 1000" enable-background="new 0 0 1000 1000" xml:space="preserve">
<rect x="209.527" y="724.31" fill="#918477" width="197.473" height="92.94"/>
<rect x="167.426" y="120.915" fill="#918477" width="318.574" height="92.94"/>
<path fill="#AD9D8F" d="M218.147,831.655c-49.322-1.087-65.427-52.727-55.756-71.264c13.043-25,39.13-46.739,75-30.435
	c35.87,16.304,16.969,72.46,16.969,72.46"/>
<path fill="#AD9D8F" d="M182.777,109.911c-33.696-2.174-95.652,47.826-57.609,85.87c25.769,20.052,54.614,24.393,77.441,9.176
	s23.238-51.509,11.135-73.037"/>
<radialGradient id="SVGID_1_" cx="458.5609" cy="172.4465" r="679.324" gradientUnits="userSpaceOnUse">
	<stop  offset="0" style="stop-color:#C3AA8D"/>
	<stop  offset="0.3596" style="stop-color:#C6AA8F"/>
	<stop  offset="1" style="stop-color:#A38364"/>
</radialGradient>
<path fill="url(#SVGID_1_)" d="M313.478,470.783c9.411,179.826-42.836,357.136-95.331,360.872
	c-52.495,3.736,497.168-22.576,497.168-22.576c49.322,1.034,108.345-159.373,111.548-335.933
	c3.619-199.493-106.522-348.337-140.217-350.404c0,0-548.739-13.973-503.868-12.831
	C227.647,111.054,304.067,290.958,313.478,470.783z"/>
<path fill="#AD9D8F" d="M213.743,131.92c0,0-14.523-21.931-30.966-22.009"/>
<path fill="#AD9D8F" d="M254.36,802.417c-19.86,32.167-36.213,29.239-36.213,29.239"/>
<g>
	<path d="M113.97,175.249c3.333,6.155,8.908,10.709,14.843,14.226c5.975,3.543,12.547,6.012,19.277,7.649
		c3.379,0.776,6.803,1.332,10.247,1.647c3.446,0.299,6.908,0.295,10.338,0.02c6.849-0.551,13.614-2.524,19.297-6.223
		c2.808-1.889,5.291-4.222,7.325-6.896c1.055-1.297,1.891-2.815,2.719-4.206l1.172-2.347c0.401-0.782,0.784-1.564,1.101-2.345
		c2.748-6.209,4.736-12.954,4.661-19.668c-0.015-3.342-0.614-6.671-1.936-9.603c-0.679-1.444-1.52-2.81-2.595-3.87
		c-0.641-0.64-1.302-1.43-1.848-2.107l-1.634-2.07c-2.133-2.72-4.352-5.266-6.948-7.316c-2.584-2.043-5.495-3.616-8.645-4.395
		c-1.566-0.412-3.179-0.655-4.812-0.709c-1.629-0.099-3.277,0.031-4.915,0.217c-3.28,0.446-6.522,1.381-9.666,2.611
		c-1.587,0.602-3.098,1.319-4.675,2.048l-4.743,2.229c-3.113,1.501-6.165,3.093-9.088,4.851c-2.91,1.761-5.722,3.684-8.102,5.902
		c-1.178,1.108-2.256,2.294-3.031,3.543c-0.757,1.251-1.243,2.525-1.183,3.701c0.066,6.424,2.656,12.867,6.563,17.976
		c1.965,2.551,4.336,4.751,7.027,6.303c0.339,0.187,0.659,0.417,1.013,0.571l1.057,0.467c0.689,0.356,1.436,0.541,2.165,0.773
		l0.548,0.172l0.137,0.044c0.053,0.016-0.23-0.051-0.071-0.017l0.081,0.014l0.323,0.056c0.203,0.031,0.458,0.09,0.619,0.097
		l0.486,0.031c0.291,0.032,0.71,0.042,1.116,0.052c0.4,0.015,0.806,0.023,1.225,0.013c3.32,0.006,6.759-0.269,10.134-0.673
		c1.691-0.204,3.373-0.456,5.021-0.767c1.647-0.299,3.284-0.69,4.694-1.175l0.519-0.184c0.154-0.064,0.268-0.133,0.406-0.194
		l0.2-0.092l0.088-0.038l0.141-0.084l0.556-0.334c0.688-0.417,1.396-0.88,2.075-1.342c1.357-0.938,2.674-1.922,3.872-3.005
		c2.377-2.153,4.419-4.67,5.26-7.426c0.423-1.371,0.551-2.78,0.356-4.185c-0.193-1.405-0.709-2.803-1.447-4.143
		c-0.737-1.34-1.686-2.627-2.795-3.815c-1.073-1.214-2.325-2.312-3.59-3.394l0.588,0.324l-3.637-1.157
		c-1.232-0.272-2.469-0.534-3.707-0.781l-1.871-0.197c-0.624-0.063-1.251-0.163-1.873-0.125l-1.874,0.012
		c-0.63-0.031-1.236,0.126-1.857,0.178c-1.251,0.088-2.442,0.44-3.654,0.727c-0.599,0.165-1.167,0.42-1.755,0.623
		c-0.289,0.113-0.59,0.204-0.872,0.333l-0.832,0.421c-1.14,0.511-2.176,1.212-3.216,1.908l-1.475,1.166l-1.362,1.301
		c-0.441,0.447-0.828,0.943-1.248,1.413c-0.403,0.483-0.739,1.012-1.116,1.516c-0.333,0.527-0.647,1.068-0.948,1.612
		c-0.239,0.56-0.568,1.11-0.723,1.679l-0.146,0.425c-0.02,0.052-0.059,0.184-0.064,0.17l-0.054,0.244
		c-0.066,0.317-0.165,0.678-0.182,0.93c-0.097,0.541-0.096,1.142-0.04,1.682c0.15,1.081,0.713,1.989,1.711,2.567
		c0.97,0.601,2.229,0.882,3.487,1.024c1.271,0.134,2.58,0.132,3.889,0.044c2.621-0.175,5.252-0.595,7.865-1.119l0.118,0.486
		c-2.572,0.732-5.177,1.417-7.87,1.773c-1.345,0.18-2.713,0.278-4.105,0.225c-1.384-0.07-2.831-0.256-4.201-0.965
		c-0.676-0.354-1.335-0.841-1.829-1.497c-0.495-0.654-0.808-1.423-0.981-2.194c-0.139-0.779-0.187-1.522-0.106-2.306
		c0.02-0.416,0.086-0.705,0.133-1.045l0.038-0.247l0.078-0.31l0.142-0.534c0.163-0.732,0.472-1.368,0.728-2.045
		c0.308-0.641,0.633-1.275,0.981-1.893c0.387-0.589,0.742-1.207,1.163-1.773c0.438-0.551,0.848-1.131,1.316-1.66
		c0.483-0.514,0.959-1.038,1.454-1.543l1.593-1.405c1.129-0.853,2.271-1.711,3.539-2.364l0.934-0.52
		c0.317-0.162,0.652-0.284,0.978-0.428c0.66-0.265,1.307-0.579,1.984-0.8c1.367-0.397,2.73-0.848,4.146-1.018
		c0.703-0.093,1.404-0.29,2.113-0.293l2.127-0.107c0.713-0.067,1.414,0.008,2.12,0.047l2.118,0.135
		c1.389,0.204,2.773,0.463,4.154,0.722l4.034,1.138l0.281,0.079l0.307,0.245c1.431,1.141,2.855,2.311,4.15,3.675
		c1.318,1.327,2.525,2.83,3.531,4.52c1.009,1.681,1.797,3.593,2.124,5.651c0.339,2.052,0.191,4.21-0.378,6.191
		c-0.557,1.993-1.514,3.79-2.632,5.389c-1.121,1.604-2.411,3.025-3.78,4.319c-1.373,1.29-2.829,2.451-4.339,3.515
		c-0.763,0.528-1.514,1.029-2.318,1.525c-0.595,0.393-1.937,1.117-2.79,1.371c-1.891,0.667-3.67,1.083-5.458,1.429
		c-1.786,0.35-3.562,0.63-5.342,0.859c-3.566,0.451-7.11,0.775-10.787,0.792c-0.455,0.005-0.924-0.008-1.397-0.031
		c-0.468-0.019-0.923-0.029-1.502-0.095l-0.82-0.086c-0.274-0.031-0.446-0.077-0.674-0.115l-0.322-0.06l-0.081-0.015
		c0.105,0.023-0.231-0.051-0.231-0.051l-0.176-0.055l-0.703-0.223c-0.935-0.302-1.884-0.572-2.757-1.019l-1.333-0.614
		c-0.443-0.206-0.842-0.485-1.265-0.726c-3.348-1.985-6.152-4.682-8.416-7.689c-2.267-3.016-3.995-6.366-5.248-9.879
		c-0.274-0.894-0.579-1.776-0.82-2.68c-0.201-0.918-0.483-1.809-0.61-2.748c-0.348-1.762-0.521-4.012-0.476-5.625
		c-0.032-2.355,0.914-4.449,1.987-6.142c1.109-1.704,2.445-3.092,3.83-4.356c2.79-2.504,5.832-4.484,8.93-6.292
		c3.105-1.795,6.291-3.383,9.504-4.867l4.787-2.163c1.608-0.715,3.272-1.472,4.966-2.086c3.385-1.265,6.923-2.237,10.586-2.679
		c3.656-0.404,7.465-0.283,11.087,0.743c3.64,0.961,6.993,2.846,9.847,5.18c2.869,2.338,5.229,5.155,7.364,7.963l1.586,2.072
		c0.545,0.689,0.993,1.253,1.578,1.863c1.401,1.429,2.384,3.109,3.164,4.831c1.503,3.479,2.078,7.2,2.047,10.842
		c-0.024,3.649-0.57,7.253-1.519,10.715c-0.19,0.881-0.507,1.72-0.763,2.579c-0.263,0.857-0.534,1.71-0.872,2.537l-0.965,2.5
		l-1.108,2.457c-0.358,0.834-0.756,1.616-1.165,2.385l-1.209,2.328c-0.98,1.602-1.876,3.132-3.055,4.54
		c-2.254,2.845-4.985,5.303-8.025,7.259c-6.152,3.831-13.277,5.719-20.352,6.149c-3.545,0.214-7.1,0.145-10.618-0.232
		c-3.516-0.392-6.997-1.029-10.42-1.889c-6.818-1.803-13.435-4.444-19.432-8.162c-2.997-1.851-5.848-3.955-8.405-6.391l-1.845-1.898
		c-0.581-0.664-1.136-1.352-1.704-2.027c-0.533-0.707-1.026-1.45-1.538-2.172c-0.455-0.75-0.871-1.518-1.308-2.275L113.97,175.249z"
		/>
</g>
<g>
	<path d="M256.026,796.808c-1.337,3.234-3.314,6.296-5.587,8.982c-2.287,2.707-4.908,5.12-7.728,7.261
		c-5.639,4.298-12.108,7.463-18.906,9.508c-6.8,2.031-14.042,2.816-21.167,1.864c-7.105-0.958-14.049-4.084-19.235-9.217
		c-2.63-2.523-4.713-5.564-6.381-8.769l-0.621-1.209c-0.106-0.213-0.202-0.377-0.315-0.631l-0.261-0.605l-1.044-2.419
		c-0.708-1.597-1.278-3.337-1.923-5.002c-2.285-6.748-3.842-13.843-3.773-21.113c0.048-3.624,0.523-7.292,1.74-10.83
		c0.266-0.893,0.698-1.746,1.071-2.614c0.469-0.839,0.904-1.691,1.52-2.475l0.404-0.558l0.401-0.523
		c0.236-0.337,0.439-0.619,0.68-0.992c0.465-0.701,0.926-1.448,1.393-2.189c1.864-2.99,3.874-6.042,6.405-8.745
		c2.519-2.696,5.638-5.03,9.248-6.377c3.609-1.346,7.57-1.589,11.274-1.02c3.718,0.579,7.231,1.833,10.517,3.407
		c1.641,0.77,3.265,1.702,4.75,2.501c1.542,0.835,3.107,1.692,4.651,2.581c3.091,1.781,6.132,3.692,9.043,5.854
		c2.9,2.172,5.711,4.563,8.091,7.559c1.178,1.502,2.246,3.174,2.993,5.094c0.38,0.954,0.646,1.984,0.803,3.047l0.076,0.809
		l0.017,0.202l0.008,0.101l0.005,0.176l0,0.329l0,1.317c-0.071,3.85-0.738,7.469-1.771,11.03c-1.047,3.544-2.468,6.994-4.4,10.213
		c-1.928,3.209-4.348,6.238-7.48,8.632c-0.799,0.579-1.572,1.19-2.476,1.642l-1.315,0.725c-0.455,0.214-0.936,0.381-1.405,0.571
		l-0.709,0.274l-0.355,0.135l-0.178,0.067l-0.337,0.083l-0.643,0.144c-0.206,0.049-0.557,0.084-0.83,0.122l-0.871,0.098
		l-0.726,0.035c-0.487,0.028-0.968,0.037-1.431,0.026c-3.747-0.027-7.307-0.449-10.904-1.035c-1.793-0.304-3.584-0.682-5.386-1.151
		c-0.906-0.259-1.812-0.519-2.741-0.87c-0.924-0.342-1.894-0.769-2.95-1.467c-3.008-2.17-5.786-4.69-8.123-7.706
		c-2.327-2.987-4.209-6.579-4.804-10.574c-0.621-3.98,0.208-8.149,2.024-11.547c1.764-3.453,4.258-6.305,6.916-8.825l0.317-0.301
		l0.286-0.098l3.904-1.341c1.365-0.277,2.703-0.65,4.089-0.812c1.402-0.085,2.784-0.323,4.201-0.164
		c0.704,0.052,1.409,0.051,2.107,0.153l2.082,0.412c0.702,0.099,1.355,0.396,2.027,0.611c0.666,0.236,1.344,0.439,1.959,0.79
		c0.626,0.324,1.266,0.621,1.872,0.971l1.739,1.177c0.578,0.392,1.07,0.892,1.606,1.333c0.544,0.435,1.008,0.95,1.478,1.457
		c0.48,0.498,0.945,1.007,1.346,1.566c0.41,0.551,0.864,1.07,1.21,1.664c0.763,1.139,1.422,2.341,1.994,3.584
		c0.551,1.256,1.042,2.537,1.318,3.92l0.11,0.514l0.059,0.292l0.029,0.242c0.034,0.333,0.088,0.623,0.107,0.992
		c0.05,0.735,0.059,1.443-0.032,2.167c-0.063,0.721-0.279,1.455-0.568,2.154c-0.324,0.696-0.791,1.337-1.365,1.848
		c-1.174,1.021-2.638,1.44-4.001,1.584c-1.38,0.154-2.73,0.058-4.049-0.117c-2.64-0.37-5.157-1.146-7.628-1.98l0.141-0.48
		c2.517,0.632,5.064,1.151,7.604,1.334c1.265,0.083,2.536,0.081,3.735-0.136c1.196-0.203,2.319-0.657,3.07-1.416
		c0.37-0.383,0.652-0.831,0.847-1.33c0.164-0.516,0.299-1.051,0.305-1.632c0.036-0.572-0.016-1.169-0.088-1.728
		c-0.028-0.28-0.112-0.628-0.165-0.939l-0.045-0.24c-0.007-0.003-0.038-0.125-0.056-0.182l-0.125-0.433
		c-0.312-1.154-0.832-2.288-1.378-3.386c-0.575-1.09-1.226-2.143-1.967-3.128c-0.336-0.518-0.772-0.957-1.162-1.43
		c-0.382-0.482-0.82-0.909-1.268-1.325c-0.439-0.424-0.867-0.859-1.365-1.209c-0.489-0.357-0.935-0.776-1.454-1.083l-1.538-0.94
		c-0.531-0.275-1.088-0.498-1.627-0.752c-0.529-0.282-1.113-0.419-1.681-0.593c-0.574-0.154-1.124-0.393-1.723-0.44l-1.76-0.272
		c-0.59-0.062-1.193-0.025-1.787-0.046c-1.188-0.098-2.386,0.182-3.574,0.294c-0.598,0.034-1.179,0.276-1.768,0.401l-1.762,0.443
		l-3.436,1.31l0.603-0.399c-2.351,2.376-4.448,4.99-5.785,7.857c-1.378,2.85-1.876,5.933-1.358,8.898
		c0.509,2.972,2.02,5.802,4.053,8.291c2.032,2.494,4.544,4.699,7.233,6.627c0.423,0.254,1.051,0.569,1.779,0.823
		c0.717,0.266,1.501,0.485,2.285,0.703c1.6,0.402,3.251,0.74,4.923,1.01c3.335,0.521,6.78,0.891,10.06,0.884
		c0.415,0.009,0.812-0.009,1.202-0.027l0.59-0.02l0.439-0.042c0.162-0.021,0.254,0.003,0.476-0.046l0.644-0.136l0.081-0.017
		c-0.052,0.015,0.23-0.058-0.096,0.029l0.13-0.051l0.26-0.101l0.521-0.198c0.345-0.137,0.701-0.245,1.042-0.4l0.994-0.542
		c0.685-0.315,1.292-0.803,1.922-1.243c2.482-1.844,4.583-4.36,6.293-7.143c1.704-2.794,3.075-5.85,4.076-9.022
		c1-3.157,1.661-6.503,1.786-9.679l0.027-1.317l0.007-0.329c0.001-0.105,0.002,0.049-0.001,0.012l-0.005-0.063l-0.01-0.126
		l-0.034-0.504c-0.089-0.675-0.24-1.361-0.498-2.044c-0.502-1.367-1.305-2.714-2.271-3.987c-1.948-2.553-4.482-4.821-7.162-6.896
		c-2.694-2.075-5.578-3.961-8.542-5.738c-1.486-0.888-2.99-1.74-4.524-2.601c-1.593-0.891-3.007-1.732-4.534-2.478
		c-3.018-1.504-6.18-2.669-9.402-3.221c-3.217-0.539-6.491-0.37-9.499,0.694c-3.005,1.072-5.705,2.991-8.01,5.383
		c-2.316,2.399-4.247,5.21-6.137,8.147c-0.48,0.738-0.952,1.479-1.469,2.234c-0.24,0.362-0.554,0.79-0.83,1.166l-0.408,0.517
		l-0.375,0.504c-0.488,0.59-0.86,1.305-1.264,1.989c-0.324,0.743-0.71,1.452-0.955,2.244c-1.12,3.094-1.628,6.474-1.72,9.863
		c-0.17,6.808,1.205,13.658,3.322,20.225c0.603,1.618,1.093,3.234,1.784,4.86l0.996,2.439l0.249,0.61
		c0.063,0.148,0.179,0.369,0.265,0.551l0.561,1.145c1.506,3.04,3.39,5.918,5.794,8.313c4.731,4.869,11.163,7.956,17.949,9.014
		c6.796,1.048,13.849,0.444,20.533-1.41c6.682-1.864,13.101-4.842,18.726-8.956c5.597-4.093,10.574-9.292,13.414-15.719
		L256.026,796.808z"/>
</g>
<g>
	<polygon points="735.468,259.853 709.486,253.485 691.261,257.598 673.036,256.714 654.812,263.534 636.586,240.752 
		618.36,250.643 600.133,246.667 581.907,257.73 563.679,243.273 545.456,253.341 527.233,241.493 509.008,263.06 490.779,256.59 
		472.554,246.182 454.327,263.622 436.099,245.483 417.87,250.876 399.645,257.67 381.414,259.947 363.182,256.581 344.947,249.283 
		326.585,252.129 319.119,226.31 344.939,239.938 363.164,234.564 381.389,238.972 399.614,241.386 417.839,222.755 
		436.065,230.521 454.293,238.604 472.519,223.618 490.746,228.747 508.969,226.893 527.193,236.41 545.418,236.702 
		563.646,224.337 581.872,233.617 600.099,223.833 618.326,243.953 636.556,240.441 654.781,234.801 673.012,227.488 
		691.244,229.314 709.478,237.732 736.081,225.587 	"/>
	<polygon fill="none" stroke="#000000" stroke-miterlimit="10" points="735.468,259.853 709.486,253.485 691.261,257.598 
		673.036,256.714 654.812,263.534 636.586,240.752 618.36,250.643 600.133,246.667 581.907,257.73 563.679,243.273 545.456,253.341 
		527.233,241.493 509.008,263.06 490.779,256.59 472.554,246.182 454.327,263.622 436.099,245.483 417.87,250.876 399.645,257.67 
		381.414,259.947 363.182,256.581 344.947,249.283 326.585,252.129 319.119,226.31 344.939,239.938 363.164,234.564 
		381.389,238.972 399.614,241.386 417.839,222.755 436.065,230.521 454.293,238.604 472.519,223.618 490.746,228.747 
		508.969,226.893 527.193,236.41 545.418,236.702 563.646,224.337 581.872,233.617 600.099,223.833 618.326,243.953 
		636.556,240.441 654.781,234.801 673.012,227.488 691.244,229.314 709.478,237.732 736.081,225.587 	"/>
</g>
<g>
	<polygon points="680.731,165.179 663.273,155.219 645.548,162.317 627.823,177.482 610.099,170.374 592.373,167.613 
		574.647,176.346 556.92,167.049 539.193,159.518 521.466,155.956 503.743,163.51 486.02,163.706 468.294,169.132 450.566,175.067 
		432.841,173.047 415.114,172.309 397.386,169.261 379.656,164.631 361.931,154.855 344.2,166.041 326.469,167.857 308.734,162.204 
		288.888,172.754 293.181,167.395 308.727,151.828 326.452,152.826 344.177,165.806 361.901,167.537 379.627,152.012 
		397.353,150.769 415.08,160.049 432.807,168.439 450.534,172.116 468.257,151.386 485.98,164.644 503.706,149.142 521.434,155.474 
		539.159,159.203 556.886,154.207 574.614,151.226 592.344,151.433 610.069,149.712 627.799,152.108 645.531,159.766 
		663.266,162.751 683.331,151.834 	"/>
	<polygon fill="none" stroke="#000000" stroke-miterlimit="10" points="680.731,165.179 663.273,155.219 645.548,162.317 
		627.823,177.482 610.099,170.374 592.373,167.613 574.647,176.346 556.92,167.049 539.193,159.518 521.466,155.956 503.743,163.51 
		486.02,163.706 468.294,169.132 450.566,175.067 432.841,173.047 415.114,172.309 397.386,169.261 379.656,164.631 
		361.931,154.855 344.2,166.041 326.469,167.857 308.734,162.204 288.888,172.754 293.181,167.395 308.727,151.828 326.452,152.826 
		344.177,165.806 361.901,167.537 379.627,152.012 397.353,150.769 415.08,160.049 432.807,168.439 450.534,172.116 
		468.257,151.386 485.98,164.644 503.706,149.142 521.434,155.474 539.159,159.203 556.886,154.207 574.614,151.226 
		592.344,151.433 610.069,149.712 627.799,152.108 645.531,159.766 663.266,162.751 683.331,151.834 	"/>
</g>
<g>
	<polygon points="781.962,355.581 759.004,353.6 741.006,352.271 723.006,359.51 705.008,338.522 687.01,347.641 669.013,337.1 
		651.014,339.544 633.015,338.074 615.015,361.549 597.016,349.353 579.015,359.574 561.019,342.397 543.023,361.543 
		525.024,357.489 507.023,362.226 489.025,353.35 471.025,339.344 453.024,360.966 435.022,355.822 417.024,361.258 399.02,341.838 
		381.015,343.709 363.007,362.563 347.398,347.301 343.29,332.077 362.996,330.212 380.994,324.12 398.994,344.974 416.992,321.163 
		434.99,327.058 452.987,332.149 470.986,336.268 488.985,323.028 506.985,329.975 524.984,326.368 542.985,342.651 
		560.981,339.559 578.977,325.832 596.976,333.873 614.977,330.442 632.975,341.552 650.975,325.185 668.976,337.414 
		686.978,332.838 704.976,337.712 722.98,323.04 740.985,336.62 758.993,334.315 771.936,339.39 	"/>
	<polygon fill="none" stroke="#000000" stroke-miterlimit="10" points="781.962,355.581 759.004,353.6 741.006,352.271 
		723.006,359.51 705.008,338.522 687.01,347.641 669.013,337.1 651.014,339.544 633.015,338.074 615.015,361.549 597.016,349.353 
		579.015,359.574 561.019,342.397 543.023,361.543 525.024,357.489 507.023,362.226 489.025,353.35 471.025,339.344 
		453.024,360.966 435.022,355.822 417.024,361.258 399.02,341.838 381.015,343.709 363.007,362.563 347.398,347.301 343.29,332.077 
		362.996,330.212 380.994,324.12 398.994,344.974 416.992,321.163 434.99,327.058 452.987,332.149 470.986,336.268 488.985,323.028 
		506.985,329.975 524.984,326.368 542.985,342.651 560.981,339.559 578.977,325.832 596.976,333.873 614.977,330.442 
		632.975,341.552 650.975,325.185 668.976,337.414 686.978,332.838 704.976,337.712 722.98,323.04 740.985,336.62 758.993,334.315 
		771.936,339.39 	"/>
</g>
<g>
	<polygon points="786.392,458.468 772.379,465.223 754.756,469.838 737.131,470.091 719.508,455.513 701.885,464.189 
		684.262,470.849 666.639,472.788 649.015,463.631 631.389,466.532 613.765,456.114 596.14,473.016 578.519,473.905 
		560.897,455.831 543.274,473.403 525.648,452.098 508.024,450.259 490.399,449.527 472.774,463.458 455.146,461.988 
		437.523,464.95 419.894,450.119 402.264,472.164 384.632,458.403 363.705,465.228 369.374,446.324 384.621,434.034 
		402.244,447.575 419.869,442.238 437.492,437.028 455.115,449.635 472.738,441.05 490.361,431.826 507.985,456.647 
		525.611,437.165 543.235,455.317 560.86,439.818 578.481,446.867 596.103,437.403 613.726,452.782 631.352,451.508 
		648.976,456.278 666.601,449.999 684.226,441.255 701.854,437.063 719.477,450.337 737.106,450.607 754.735,433.496 
		772.368,448.733 797.191,437.029 	"/>
	<polygon fill="none" stroke="#000000" stroke-miterlimit="10" points="786.392,458.468 772.379,465.223 754.756,469.838 
		737.131,470.091 719.508,455.513 701.885,464.189 684.262,470.849 666.639,472.788 649.015,463.631 631.389,466.532 
		613.765,456.114 596.14,473.016 578.519,473.905 560.897,455.831 543.274,473.403 525.648,452.098 508.024,450.259 
		490.399,449.527 472.774,463.458 455.146,461.988 437.523,464.95 419.894,450.119 402.264,472.164 384.632,458.403 
		363.705,465.228 369.374,446.324 384.621,434.034 402.244,447.575 419.869,442.238 437.492,437.028 455.115,449.635 
		472.738,441.05 490.361,431.826 507.985,456.647 525.611,437.165 543.235,455.317 560.86,439.818 578.481,446.867 596.103,437.403 
		613.726,452.782 631.352,451.508 648.976,456.278 666.601,449.999 684.226,441.255 701.854,437.063 719.477,450.337 
		737.106,450.607 754.735,433.496 772.368,448.733 797.191,437.029 	"/>
</g>
<g>
	<polygon points="796.847,568.647 772.129,553.023 754.256,552.958 736.381,572.079 718.508,567.24 700.635,571.02 682.763,551.54 
		664.889,551.292 647.015,566.451 629.139,569.493 611.265,550.586 593.39,553.224 575.519,563.87 557.648,554.537 539.774,549.946 
		521.898,569.875 504.025,558.215 486.15,561.237 468.274,556.839 450.396,559.259 432.524,560.161 414.645,549.55 396.765,548.637 
		378.882,551.162 361.279,560.688 367.525,552.289 378.871,542.595 396.744,534.44 414.619,553.06 432.492,539.454 450.365,550.602 
		468.238,545.758 486.111,543.642 503.985,533.744 521.861,539.461 539.735,533.962 557.61,536.43 575.481,554.896 593.352,538.054 
		611.226,544.976 629.102,540.564 646.975,536.199 664.85,557.745 682.726,553.115 700.604,533.275 718.476,547.436 
		736.355,542.822 754.235,549.687 772.118,544.029 792.982,541.882 	"/>
	<polygon fill="none" stroke="#000000" stroke-miterlimit="10" points="796.847,568.647 772.129,553.023 754.256,552.958 
		736.381,572.079 718.508,567.24 700.635,571.02 682.763,551.54 664.889,551.292 647.015,566.451 629.139,569.493 611.265,550.586 
		593.39,553.224 575.519,563.87 557.648,554.537 539.774,549.946 521.898,569.875 504.025,558.215 486.15,561.237 468.274,556.839 
		450.396,559.259 432.524,560.161 414.645,549.55 396.765,548.637 378.882,551.162 361.279,560.688 367.525,552.289 
		378.871,542.595 396.744,534.44 414.619,553.06 432.492,539.454 450.365,550.602 468.238,545.758 486.111,543.642 503.985,533.744 
		521.861,539.461 539.735,533.962 557.61,536.43 575.481,554.896 593.352,538.054 611.226,544.976 629.102,540.564 646.975,536.199 
		664.85,557.745 682.726,553.115 700.604,533.275 718.476,547.436 736.355,542.822 754.235,549.687 772.118,544.029 
		792.982,541.882 	"/>
</g>
<g>
	<polygon points="760.771,661.69 743.872,671.132 725.742,661.753 707.614,654.122 689.486,669.478 671.358,670.358 
		653.229,670.551 635.1,651.878 616.969,665.637 598.839,650.736 580.709,669.65 562.583,653.241 544.456,653.131 526.327,655.974 
		508.196,665.392 490.067,654.438 471.937,674.15 453.806,668.72 435.673,674.655 417.545,655.295 399.411,650.84 381.275,659.748 
		363.138,655.417 352.084,655.442 351.64,653.081 363.128,642.483 381.258,647.795 399.386,643.962 417.514,655.328 
		435.642,651.066 453.771,648.66 471.9,656.99 490.031,644.1 508.161,653.772 526.291,634.552 544.417,655.2 562.544,635.452 
		580.673,643.383 598.804,656.852 616.933,644.429 635.063,644.149 653.194,635.508 671.327,651.689 689.455,643.859 
		707.589,634.068 725.725,637.871 743.862,646.296 755.497,653.009 	"/>
	<polygon fill="none" stroke="#000000" stroke-miterlimit="10" points="760.771,661.69 743.872,671.132 725.742,661.753 
		707.614,654.122 689.486,669.478 671.358,670.358 653.229,670.551 635.1,651.878 616.969,665.637 598.839,650.736 580.709,669.65 
		562.583,653.241 544.456,653.131 526.327,655.974 508.196,665.392 490.067,654.438 471.937,674.15 453.806,668.72 435.673,674.655 
		417.545,655.295 399.411,650.84 381.275,659.748 363.138,655.417 352.084,655.442 351.64,653.081 363.128,642.483 381.258,647.795 
		399.386,643.962 417.514,655.328 435.642,651.066 453.771,648.66 471.9,656.99 490.031,644.1 508.161,653.772 526.291,634.552 
		544.417,655.2 562.544,635.452 580.673,643.383 598.804,656.852 616.933,644.429 635.063,644.149 653.194,635.508 671.327,651.689 
		689.455,643.859 707.589,634.068 725.725,637.871 743.862,646.296 755.497,653.009 	"/>
</g>
<g>
	<polygon points="729.677,753.467 709.9,760.474 691.577,758.232 672.893,746.448 654.603,745.067 636.463,747.664 618.526,755.642 
		599.993,747.942 581.747,747.76 563.996,760.657 545.767,760.861 526.94,745.265 509.178,757.836 490.747,752.847 472.853,761.934 
		454.295,753.529 436.402,762.706 418.369,768.262 399.647,755.462 381.595,760.541 363.223,757.19 345.223,763.742 
		326.143,766.659 324.643,752.301 344.576,746.853 363.187,756.699 381.73,764.774 399.634,755.958 417.892,756.477 435.753,746.49 
		453.768,740.515 472.549,754.829 490.25,740.588 508.64,744.644 527.357,757.343 545.456,753.669 563.259,742.074 581.552,743.531 
		600.315,757.338 617.778,736.787 636.749,756.025 654.292,737.667 672.827,745.365 691.12,746.632 709.497,750.033 732.31,732.669 
			"/>
	<polygon fill="none" stroke="#000000" stroke-miterlimit="10" points="729.677,753.467 709.9,760.474 691.577,758.232 
		672.893,746.448 654.603,745.067 636.463,747.664 618.526,755.642 599.993,747.942 581.747,747.76 563.996,760.657 
		545.767,760.861 526.94,745.265 509.178,757.836 490.747,752.847 472.853,761.934 454.295,753.529 436.402,762.706 
		418.369,768.262 399.647,755.462 381.595,760.541 363.223,757.19 345.223,763.742 326.143,766.659 324.643,752.301 
		344.576,746.853 363.187,756.699 381.73,764.774 399.634,755.958 417.892,756.477 435.753,746.49 453.768,740.515 472.549,754.829 
		490.25,740.588 508.64,744.644 527.357,757.343 545.456,753.669 563.259,742.074 581.552,743.531 600.315,757.338 617.778,736.787 
		636.749,756.025 654.292,737.667 672.827,745.365 691.12,746.632 709.497,750.033 732.31,732.669 	"/>
</g>
<g>
	<polyline fill="#D1D3D4" points="309.989,849.063 310.927,848.65 310.674,847.736 311.178,847.112 311.623,846.449 310.45,845.425 
		312.219,844.994 310.388,844.003 312.033,843.417 311.427,842.641 310.937,841.92 310.819,841.215 310.671,840.521 
		311.292,839.692 311.509,838.88 311.81,838.003 310.573,837.596 310.814,836.712 309.243,836.592 309.969,835.444 309.306,834.964 
		308.117,834.851 308.646,833.648 308.043,833.182 308.288,832.043 307.34,831.865 307.129,831.05 305.886,831.239 305.459,830.646 
		304.423,830.736 304.969,828.968 304.049,828.931 303.522,828.409 303.152,827.653 302.704,826.979 301.58,827.359 
		301.456,826.154 300.549,826.232 300.062,825.587 299.319,825.403 298.199,825.982 298.153,824.415 297.318,824.444 
		296.184,825.173 295.372,825.23 295.189,823.788 294.195,824.296 294.025,822.705 292.762,823.985 292.32,823.06 291.946,821.886 
		290.719,823.253 290.179,822.567 289.393,822.648 288.835,821.977 288.429,820.737 287.243,822.239 286.85,820.894 
		286.301,820.062 285.228,821.316 284.682,820.467 283.696,821.454 283.343,819.703 282.566,819.776 281.75,820.075 
		280.951,820.296 280.108,820.773 280.056,819.537 280.12,818.992 280.665,818.367 281.282,817.936 282.232,818.421 
		283.082,818.637 283.596,817.917 284.638,818.682 285.382,818.614 286.009,818.219 286.688,817.969 286.737,815.895 
		287.485,815.833 288.374,816.188 289.253,816.522 289.857,816.045 290.499,815.679 290.901,814.588 291.71,814.72 292.798,815.709 
		293.564,815.726 294.031,814.819 294.929,815.246 295.646,815.113 296.195,814.451 296.822,814.03 297.308,813.152 298.073,813.17 
		298.743,812.879 299.335,812.333 300.157,812.542 300.824,812.241 301.625,812.387 302.503,812.797 302.9,811.585 303.752,811.912 
		304.301,811.201 305.192,811.674 305.503,810.129 306.754,811.868 307.435,811.622 308.045,811.116 308.361,809.552 
		309.075,809.406 309.714,808.991 310.728,809.945 311.193,808.891 312.162,809.698 312.51,808.191 313.458,808.931 314.18,808.825 
		314.941,808.866 315.73,809.023 316.526,809.208 317.128,808.645 317.755,808.168 318.562,808.406 318.854,806.591 319.9,807.786 
		320.369,806.661 321.274,807.303 321.948,807.006 322.847,807.641 323.548,807.463 324.15,806.867 324.772,806.346 
		325.459,806.099 326.161,805.919 326.656,804.839 327.347,804.599 328.43,806.083 329.086,805.702 329.553,804.469 
		330.185,803.965 331.142,804.929 332.002,805.466 332.503,804.364 333.015,803.299 333.694,802.994 334.7,804.232 335.151,802.855 
		336.269,804.647 336.58,802.586 337.259,802.279 338.03,802.419 339.027,803.68 339.735,803.523 340.381,803.057 341.069,802.801 
		341.923,803.383 342.539,802.761 342.985,801.251 343.985,802.6 344.472,801.284 345.416,802.367 345.957,801.32 346.879,802.306 
		347.259,800.373 348.117,801.022 349.061,802.152 349.526,800.649 350.212,800.365 351.109,801.261 351.757,800.76 
		352.514,800.875 353.127,800.165 354.031,801.139 354.606,800.199 355.203,799.376 356.123,800.473 356.856,800.46 
		357.384,799.204 358.129,799.261 358.755,798.586 359.533,798.841 360.183,798.307 361.13,799.642 361.744,798.877 
		362.422,798.509 363.048,797.804 363.955,798.926 364.632,798.556 365.234,797.675 366.101,798.565 366.675,797.48 367.51,798.17 
		368.257,798.263 368.997,798.314 369.525,796.871 370.507,798.629 370.94,796.491 371.691,796.609 372.659,798.32 373.261,797.367 
		374.006,797.461 374.649,796.789 375.484,797.568 376.203,797.47 376.762,796.139 377.525,796.373 378.239,796.228 
		379.043,796.801 379.721,796.372 380.344,795.489 381.186,796.386 381.994,797.019 382.487,795.037 383.244,795.245 384.1,796.303 
		384.698,795.165 385.585,796.513 386.263,796.06 386.913,795.339 387.671,795.582 388.377,795.363 389.19,796.123 389.853,795.504 
		390.644,796.07 391.229,794.705 392.06,795.668 392.685,794.66 393.429,794.793 394.049,793.709 394.826,794.167 395.506,793.653 
		396.234,793.628 397.031,794.315 397.812,794.849 398.552,794.962 399.222,794.336 399.854,793.276 400.731,794.882 
		401.317,793.308 402.087,793.745 402.874,794.405 403.491,793.116 404.363,794.774 405.026,794.003 405.753,793.982 
		406.462,793.754 407.112,792.789 407.826,792.596 408.659,793.883 409.404,794.105 410.151,794.353 410.716,792.225 
		411.519,793.192 412.294,793.814 412.891,792.037 413.692,793.031 414.433,793.198 415.067,791.862 415.853,792.673 
		416.533,791.971 417.315,792.75 418.089,793.44 418.699,791.655 419.541,793.396 420.281,793.591 420.968,792.95 421.691,792.886 
		422.375,792.166 423.13,792.62 423.849,792.462 424.531,791.667 425.305,792.476 425.988,791.671 426.693,791.241 427.472,792.191 
		428.245,793.043 428.969,792.988 429.673,792.535 430.383,792.193 431.155,793.087 431.792,791.254 432.541,791.68 
		433.243,791.127 433.983,791.378 434.726,791.727 435.455,791.752 436.178,791.657 436.884,791.146 437.599,790.823 
		438.337,791.08 439.088,791.656 439.824,791.891 440.575,792.535 441.247,791.044 441.984,791.305 442.731,791.856 443.41,790.437 
		444.137,790.4 444.87,790.569 445.61,790.959 446.336,790.884 447.05,790.433 447.785,790.67 448.54,791.651 449.271,791.789 
		449.959,790.326 450.683,790.175 451.453,791.863 452.144,790.388 452.875,790.498 453.625,791.542 454.354,791.65 
		455.076,791.416 455.815,792.043 456.525,791.161 457.234,790.138 457.966,790.39 458.692,790.28 459.426,790.69 460.144,790.002 
		460.888,791.174 461.6,790.065 462.349,791.757 463.061,790.465 463.792,790.821 464.515,790.385 465.257,792.06 465.97,790.421 
		466.701,790.897 467.423,790.021 468.156,791.027 468.886,791.48 469.607,790.199 470.335,790.342 471.062,790.168 
		471.793,791.786 472.52,791.749 473.245,789.957 473.973,791.868 474.7,791.143 475.429,789.946 476.154,791.165 476.883,790.534 
		477.605,791.726 478.338,790.519 479.063,790.996 479.793,790.586 480.519,790.743 481.238,791.838 481.981,789.956 
		482.705,790.328 483.426,791.048 484.151,791.208 484.878,791.253 485.616,790.325 486.336,790.948 487.065,790.797 
		487.794,790.706 488.507,791.669 489.258,790.183 489.952,792.191 490.69,791.562 491.444,790.084 492.157,790.866 
		492.871,791.549 493.594,791.762 494.348,790.504 495.068,790.866 495.8,790.671 496.52,791.034 497.248,791.022 497.943,792.326 
		498.676,792.083 499.414,791.689 500.145,791.555 500.859,792.046 501.609,791.237 502.308,792.235 503.057,791.508 
		503.776,791.813 504.529,790.988 505.239,791.556 505.944,792.256 506.713,791.006 507.401,792.212 508.142,791.811 
		508.91,790.683 509.635,790.777 510.308,792.303 511.067,791.462 511.746,792.762 512.507,791.894 513.252,791.477 
		513.971,791.694 514.698,791.735 515.44,791.407 516.121,792.561 516.86,792.28 517.579,792.51 518.375,790.938 519.057,792.007 
		519.814,791.378 520.526,791.753 521.288,791.037 521.987,791.67 522.718,791.635 523.377,793.089 524.1,793.197 524.897,791.794 
		525.616,791.99 526.283,793.225 527.037,792.726 527.774,792.569 528.549,791.679 529.258,792.065 529.945,792.85 530.654,793.219 
		531.427,792.409 532.104,793.347 532.878,792.54 533.648,791.829 534.349,792.324 535.104,791.878 535.722,793.781 
		536.531,792.434 537.24,792.788 537.969,792.781 538.627,793.961 539.347,794.095 540.077,794.087 540.867,793.118 
		541.559,793.705 542.361,792.566 543.107,792.316 543.781,793.177 544.56,792.439 545.227,793.391 545.985,792.973 
		546.638,794.111 547.427,793.238 548.053,794.737 548.807,794.381 549.534,794.429 550.32,793.626 551.054,793.574 
		551.774,793.717 552.44,794.606 553.153,794.827 554.003,793.202 554.598,795.026 555.416,793.845 556.045,795.193 
		556.905,793.475 557.492,795.364 558.264,794.807 559.078,793.738 559.765,794.29 560.508,794.135 561.266,793.803 561.84,795.758 
		562.739,793.667 563.346,795.2 564.163,794.133 564.909,793.962 565.499,795.669 566.344,794.287 566.932,795.993 567.674,795.865 
		568.547,794.192 569.15,795.685 569.831,796.27 570.544,796.466 571.317,795.981 572.041,796.065 572.831,795.395 573.561,795.412 
		574.203,796.409 574.891,796.885 575.662,796.444 576.538,794.854 577.216,795.45 577.862,796.375 578.642,795.855 579.335,796.27 
		580.111,795.799 580.796,796.295 581.473,796.867 582.298,795.892 582.999,796.212 583.719,796.334 584.391,796.954 
		585.12,796.987 585.911,796.385 586.677,796.043 587.231,797.836 588.035,797.119 588.678,798.002 589.526,796.846 590.132,798.1 
		590.972,797.039 591.766,796.433 592.36,797.783 593.14,797.322 593.794,798.08 594.54,797.945 595.351,797.202 596.002,797.973 
		596.78,797.55 597.471,797.946 598.152,798.427 598.821,799.013 599.527,799.259 600.309,798.804 601.036,798.852 601.855,798.067 
		602.547,798.438 603.286,798.391 603.863,799.794 604.768,798.249 605.345,799.646 606.095,799.489 606.873,799.095 
		607.571,799.404 608.397,798.587 609.011,799.632 609.768,799.424 610.385,800.432 611.228,799.492 611.835,800.569 
		612.792,798.667 613.489,798.981 614.22,799.007 614.94,799.123 615.609,799.674 616.318,799.881 617.096,799.513 617.676,800.793 
		618.333,801.428 619.093,801.21 619.942,800.264 620.652,800.461 621.422,800.172 622.195,799.859 622.799,800.918 
		623.392,802.048 624.159,801.78 625.023,800.745 625.758,800.742 626.351,801.868 627.068,802.003 627.828,801.8 628.551,801.892 
		629.402,800.983 630.102,801.251 630.729,802.086 631.443,802.248 632.232,801.832 632.969,801.813 633.551,802.985 
		634.489,801.439 635.133,802.129 635.898,801.907 636.639,801.868 637.174,803.367 638.052,802.302 638.831,801.975 
		639.473,802.667 640.024,804.026 640.974,802.448 641.666,802.773 642.295,803.553 642.896,804.526 643.857,802.89 
		644.419,804.143 645.237,803.551 646.009,803.292 646.659,803.91 647.438,803.604 648.182,803.544 648.69,805.16 649.658,803.518 
		650.376,803.646 651.019,804.304 651.552,805.728 652.531,804.033 653.112,805.11 653.818,805.319 654.448,806.048 
		655.393,804.613 655.865,806.427 656.831,804.856 657.524,805.154 658.176,805.726 658.923,805.654 659.754,805.02 
		660.354,805.944 660.928,807.031 661.893,805.504 662.396,807.062 663.317,805.839 663.834,807.296 664.546,807.459 
		665.323,807.194 665.981,807.71 666.771,807.363 667.377,808.216 668.389,806.419 668.989,807.313 669.713,807.403 
		670.293,808.416 671.144,807.683 671.848,807.894 672.541,808.178 673.335,807.818 674.14,807.388 674.878,807.386 675.59,807.552 
		676.297,807.748 676.865,808.814 677.6,808.829 678.399,808.445 679.21,807.994 679.937,808.059 680.663,808.14 681.103,809.983 
		681.79,810.296 682.505,810.434 683.34,809.84 684.234,808.88 684.935,809.11 685.433,810.577 686.314,809.71 686.846,810.959 
		687.751,809.949 688.226,811.537 689.199,810.123 689.872,810.518 690.616,810.487 691.135,811.794 691.939,811.403 
		692.725,811.12 693.529,810.735 694.121,811.603 694.721,812.42 695.728,810.842 696.388,811.302 697.183,810.976 697.841,811.452 
		698.39,812.559 699.246,811.879 700.02,811.677 700.642,812.355 701.331,812.644 702.129,812.306 702.764,812.903 703.298,814.075 
		704.143,813.47 704.934,813.177 705.704,813.001 706.169,814.558 707.162,813.123 707.742,814.022 708.595,813.386 709.307,813.54 
		710.08,813.353 710.581,814.685 711.195,815.384 712.008,814.978 712.859,814.357 713.346,815.757 714.256,814.816 
		714.813,815.823 715.564,815.763 716.433,815.054 717.126,815.313 717.657,816.447 718.443,816.198 719.325,815.431 
		720.058,815.468 720.763,815.659 721.499,815.683 721.964,817.161 722.784,816.738 723.483,816.958 724.112,817.549 
		725.016,816.68 725.505,818.01 726.315,817.641 727.203,816.862 727.868,817.265 728.5,817.836 729.173,818.19 730.07,817.371 
		730.815,817.348 731.376,818.291 731.936,819.228 732.789,818.644 733.514,818.728 734.182,819.102 734.8,819.735 735.543,819.723 
		736.578,818.215 737.018,819.761 737.614,820.498 738.49,819.809 739.067,820.644 739.862,820.372 740.556,820.608 
		741.589,819.136 742.242,819.579 742.983,819.583 743.725,819.583 744.387,819.982 745.079,820.233 745.489,821.888 
		746.296,821.561 747.311,820.205 747.93,820.813 748.332,822.493 749.205,821.844 750.166,820.766 750.56,822.477 751.205,822.953 
		752.194,821.743 752.796,822.424 753.444,822.883 754.35,822.088 755.137,821.872 755.792,822.293 756.471,822.599 
		757.243,822.456 757.951,822.624 758.372,824.163 759.346,823.056 759.704,824.892 760.418,825.026 761.41,823.835 
		762.167,823.766 762.981,823.429 763.577,824.122 764.303,824.2 764.774,825.479 765.688,824.673 766.442,824.62 766.831,826.273 
		767.742,825.486 768.247,826.592 769.151,825.839 770.046,825.135 770.437,826.762 771.356,825.946 771.83,827.187 
		772.891,825.718 773.634,825.722 773.894,827.933 774.85,826.955 775.378,827.939 776.073,828.155 776.735,828.517 777.81,827.01 
		778.263,828.324 779.056,828.094 779.62,828.899 780.326,829.064 781.216,828.405 781.781,829.2 782.576,828.965 783.384,828.677 
		784.199,828.353 784.926,828.426 785.508,829.142 786.26,829.102 786.693,830.47 787.367,830.77 788.192,830.41 789.101,829.681 
		789.538,831.02 790.523,829.982 791.33,829.726 791.965,830.218 792.438,831.408 793.43,830.35 794.122,830.591 794.611,831.704 
		795.242,832.2 796.119,831.644 796.835,831.777 797.524,832.024 798.169,832.458 798.769,833.079 799.483,833.213 800.186,833.397 
		801.234,832.123 801.533,834.005 802.582,832.728 802.907,834.494 803.723,834.196 804.594,833.672 805.408,833.384 805.837,834.7 
		806.79,833.835 807.104,835.612 807.962,835.141 808.951,834.135 809.255,835.938 810.108,835.491 811.01,834.84 811.584,835.531 
		812.464,834.973 812.857,836.387 813.692,836.011 814.466,835.881 814.929,836.997 815.867,836.207 816.415,836.975 
		817.047,837.404 818.047,836.37 818.483,837.579 819.327,837.172 819.85,838.036 820.687,837.68 821.407,837.776 821.906,838.723 
		823.003,837.342 823.68,837.588 824.244,838.276 824.967,838.355 825.435,839.394 826.014,840.002 826.72,840.116 827.492,840.001 
		828.53,839.927 827.563,839.17 826.847,838.811 826.096,839.562 825.365,839.656 824.669,838.728 823.946,838.63 823.177,840.092 
		822.438,840.558 821.722,840.252 821.029,839.087 820.264,840.498 819.577,839.026 818.857,838.756 818.117,839.23 817.363,840.3 
		816.68,838.448 815.924,839.603 815.176,840.497 814.49,838.727 813.723,840.452 813.029,838.98 812.31,838.61 811.559,839.727 
		810.82,840.356 810.108,839.616 809.381,839.668 808.669,838.915 807.933,839.434 807.209,839.282 806.492,838.786 
		805.739,840.254 805.031,839.252 804.322,838.225 803.583,838.975 802.849,839.442 802.126,839.229 801.416,838.169 
		800.664,839.83 799.945,839.366 799.21,839.998 798.491,839.538 797.777,838.629 797.046,838.99 796.324,838.615 795.604,838.065 
		794.864,839.224 794.14,839.073 793.407,840.119 792.704,838.414 791.977,838.916 791.254,839.022 790.537,838.591 
		789.803,839.896 789.088,839.175 788.361,839.743 787.652,838.284 786.93,838.233 786.198,839.412 785.472,839.95 784.754,839.464 
		784.041,837.959 783.306,839.932 782.592,838.61 781.863,839.761 781.149,838.217 780.419,839.579 779.696,839.769 
		778.975,839.321 778.253,839.2 777.531,838.873 776.806,839.51 776.084,839.116 775.362,838.584 774.639,838.527 773.914,839.557 
		773.193,838.251 772.468,838.876 771.744,839.738 771.021,838.773 770.298,839.383 769.574,839.391 768.85,838.358 
		768.126,838.267 767.404,839.555 766.678,838.192 765.956,839.088 765.233,839.899 764.509,839.7 763.785,839.647 763.056,837.891 
		762.335,838.773 761.612,839.158 760.883,838.063 760.16,838.286 759.443,839.992 758.717,839.667 757.989,838.903 
		757.264,838.745 756.54,838.823 755.812,838.341 755.097,839.746 754.369,839.286 753.638,838.41 752.914,838.5 752.194,839.109 
		751.473,839.617 750.751,839.829 750.011,838.091 749.295,839.151 748.574,839.598 747.845,839.102 747.128,839.944 
		746.406,840.168 745.664,838.523 744.937,838.373 744.221,839.21 743.493,838.99 742.775,839.605 742.055,840.058 741.315,838.802 
		740.607,840.148 739.861,838.602 739.153,839.926 738.421,839.413 737.693,839.257 736.983,840.274 736.23,838.393 
		735.522,839.568 734.805,840.161 734.076,839.924 733.351,839.932 732.6,838.374 731.883,838.944 731.176,840.038 730.451,840.092 
		729.708,839.114 728.972,838.542 728.259,839.266 727.552,840.277 726.817,839.761 726.1,840.239 725.363,839.647 724.63,839.306 
		723.903,839.288 723.161,838.469 722.466,840.023 721.733,839.693 720.998,839.271 720.284,839.821 719.553,839.601 
		718.827,839.626 718.085,838.927 717.394,840.497 716.642,839.364 715.926,839.804 715.213,840.386 714.482,840.186 
		713.726,838.958 713.037,840.506 712.309,840.42 711.565,839.756 710.811,838.695 710.131,840.472 709.412,840.763 708.646,839.3 
		707.936,839.905 707.194,839.335 706.487,840.082 705.724,838.783 705.035,840.135 704.299,839.802 703.57,839.753 
		702.859,840.277 702.139,840.531 701.407,840.355 700.659,839.643 699.969,840.875 699.215,839.983 698.52,841.011 
		697.784,840.707 697.015,839.387 696.305,839.944 695.571,839.726 694.832,839.371 694.103,839.339 693.434,841.092 
		692.664,839.818 691.919,839.294 691.238,840.669 690.501,840.371 689.739,839.382 689.08,841.334 688.302,839.917 
		687.589,840.308 686.873,840.636 686.104,839.518 685.398,840.102 684.654,839.658 683.992,841.415 683.244,840.874 
		682.468,839.609 681.811,841.391 681.036,840.125 680.32,840.394 679.609,840.766 678.873,840.502 678.149,840.549 677.457,841.39 
		676.71,840.874 675.981,840.808 675.293,841.732 674.559,841.54 673.851,841.949 673.097,841.304 672.358,841.009 671.674,841.972 
		670.948,841.973 670.188,841.205 669.496,841.994 668.742,841.375 668.03,841.693 667.298,841.564 666.535,840.76 665.854,841.764 
		665.08,840.748 664.418,842.131 663.649,841.237 662.914,841.063 662.222,841.806 661.508,842.055 660.795,842.353 
		660.017,841.307 659.268,840.869 658.543,840.901 657.84,841.39 657.096,841.062 656.425,842.18 655.688,841.992 654.966,842.098 
		654.175,840.868 653.558,842.993 652.748,841.415 652.045,841.885 651.284,841.239 650.595,841.969 649.866,841.952 
		649.111,841.452 648.431,842.335 647.729,842.799 646.98,842.408 646.252,842.403 645.521,842.346 644.842,843.223 
		644.022,841.582 643.393,843.324 642.561,841.518 641.885,842.429 641.157,842.433 640.504,843.707 639.693,842.297 
		639.056,843.846 638.282,843.076 637.495,842.088 636.866,843.739 636.062,842.485 635.426,844.009 634.585,842.172 
		633.882,842.585 633.239,843.973 632.441,842.854 631.681,842.353 631.027,843.536 630.268,843.064 629.587,843.805 
		628.89,844.309 628.071,842.909 627.404,843.852 626.707,844.345 625.886,842.947 625.16,842.992 624.423,842.876 623.763,843.911 
		623.061,844.314 622.294,843.753 621.595,844.201 620.829,843.656 620.061,843.092 619.32,842.936 618.596,843.019 
		617.988,844.759 617.172,843.526 616.459,843.758 615.792,844.635 615.094,845.077 614.32,844.463 613.579,844.297 612.86,844.454 
		612.083,843.799 611.357,843.858 610.714,845.035 609.95,844.573 609.26,845.115 608.504,844.763 607.734,844.239 607.12,845.756 
		606.279,844.302 605.67,845.887 604.835,844.518 604.095,844.401 603.346,844.167 602.659,844.715 601.921,844.624 
		601.261,845.519 600.555,845.82 599.762,845.042 599.141,846.39 598.278,844.734 597.686,846.424 596.968,846.558 596.235,846.511 
		595.383,845.03 594.814,846.97 593.967,845.556 593.21,845.23 592.54,845.941 591.8,845.829 591.107,846.267 590.357,846.027 
		589.697,846.838 589.014,847.39 588.186,846.257 587.394,845.546 586.683,845.767 585.992,846.222 585.218,845.728 
		584.593,846.927 583.873,847.045 583.111,846.688 582.347,846.316 581.738,847.663 581.052,848.152 580.293,847.84 
		579.548,847.687 578.87,848.255 578.073,847.543 577.286,846.943 576.551,846.897 575.934,848.111 575.219,848.281 
		574.492,848.327 573.805,848.789 573.066,848.702 572.349,848.85 571.519,847.829 570.872,848.702 570.066,847.937 569.39,848.506 
		568.538,847.282 567.897,848.2 567.139,847.94 566.372,847.592 565.628,847.477 564.91,847.619 564.343,849.259 563.515,848.316 
		562.73,847.802 562.216,849.928 561.423,849.331 560.713,849.55 559.931,849.077 559.325,850.285 558.44,848.823 557.818,849.874 
		556.936,848.466 556.381,850.139 555.494,848.702 554.924,850.219 554.079,849.173 553.502,850.621 552.746,850.403 
		552.048,850.723 551.214,849.801 550.608,850.953 549.847,850.701 549.1,850.577 548.454,851.36 547.603,850.315 546.854,850.172 
		546.086,849.873 545.501,851.178 544.688,850.488 544.08,851.581 543.313,851.297 542.518,850.769 541.832,851.181 
		541.173,851.818 540.456,851.961 539.641,851.275 538.831,850.643 538.225,851.72 537.475,851.592 536.869,852.659 
		536.076,852.172 535.378,852.473 534.594,852.061 533.859,852.06 533.124,852.063 532.388,852.052 531.734,852.704 
		531.049,853.102 530.327,853.208 529.419,851.823 528.891,853.477 528.129,853.256 527.455,853.738 526.758,854.039 
		525.882,852.939 525.25,853.741 524.384,852.731 523.793,853.849 522.962,853.113 522.148,852.516 521.46,852.883 520.933,854.472 
		520.118,853.871 519.39,853.935 518.696,854.245 518.018,854.683 517.089,853.25 516.386,853.498 515.688,853.784 515.077,854.705 
		514.209,853.747 513.666,855.154 513.007,855.713 512.281,855.787 511.296,854.005 510.795,855.697 509.982,855.155 
		509.364,855.998 508.686,856.407 507.87,855.853 507.245,856.638 506.52,856.717 505.502,854.771 505.021,856.541 504.086,855.186 
		503.501,856.231 502.809,856.544 502.052,856.413 501.359,856.716 500.482,855.781 499.764,855.918 499.187,856.995 
		498.426,856.842 497.662,856.674 497.102,857.851 496.194,856.734 495.485,856.926 494.663,856.39 494.266,858.603 
		493.383,857.669 492.732,858.233 491.811,857.07 491.349,858.835 490.378,857.363 489.853,858.719 488.904,857.395 
		488.314,858.334 487.593,858.45 486.855,858.462 486.137,858.596 485.376,858.467 484.855,859.805 484.009,859.156 
		483.405,859.982 482.394,858.339 481.845,859.493 481.087,859.391 480.365,859.499 479.692,859.904 478.888,859.527 
		478.111,859.312 477.613,860.74 476.631,859.327 476.245,861.403 475.466,861.176 474.654,860.761 474.04,861.497 473.383,861.975 
		472.667,862.115 471.774,861.252 470.88,860.388 470.5,862.432 469.757,862.417 468.992,862.284 468.032,861.07 467.271,860.966 
		466.681,861.809 465.918,861.697 465.288,862.317 464.768,863.53 463.88,862.737 463.112,862.596 462.372,862.611 461.864,863.873 
		461.139,863.965 460.087,862.32 459.388,862.555 458.903,863.923 458.072,863.461 457.474,864.226 456.646,863.783 
		455.967,864.118 455.333,864.687 454.471,864.079 454.008,865.52 453.071,864.532 452.272,864.251 451.736,865.309 
		450.995,865.324 450.126,864.699 449.374,864.668 448.961,866.324 447.982,865.156 447.459,866.256 446.759,866.479 
		445.815,865.502 445.087,865.589 444.498,866.352 443.722,866.208 442.901,865.846 442.304,866.566 441.746,867.461 
		440.717,866.116 440.105,866.757 439.684,868.293 438.849,867.877 438.212,868.389 437.383,868.002 436.876,869.112 
		436.164,869.272 435.225,868.385 434.609,868.99 433.868,869.017 433.324,869.94 432.364,868.975 431.64,869.083 430.92,869.211 
		430.192,869.3 429.699,870.437 428.686,869.264 428.087,869.924 427.239,869.49 426.802,870.856 425.887,870.132 425.058,869.79 
		424.759,871.735 423.632,870.11 423.061,870.877 422.363,871.101 421.473,870.507 420.98,871.597 420.501,872.739 419.775,872.835 
		419.079,873.06 418.249,872.729 417.405,872.345 416.793,872.918 415.946,872.526 415.202,872.556 414.826,874.083 
		414.156,874.412 412.974,872.678 412.72,874.678 412.019,874.876 411.14,874.372 410.135,873.373 409.895,875.399 408.786,873.998 
		408.263,874.901 407.31,874.125 406.794,875.049 406.341,876.207 405.523,875.959 404.605,875.336 404.234,876.795 
		403.511,876.909 402.685,876.638 402.02,876.977 401.222,876.817 400.368,876.449 399.606,876.429 399.205,877.738 
		398.595,878.279 397.797,878.127 396.899,877.62 396.429,878.659 395.399,877.683 394.96,878.83 394.05,878.29 393.602,879.397 
		392.826,879.336 392.002,879.109 391.593,880.338 390.637,879.651 390.062,880.294 388.95,879.08 388.705,880.855 387.765,880.241 
		387.338,881.381 386.359,880.642 385.937,881.789 385.096,881.52 384.34,881.54 383.578,881.543 382.973,882.064 382.231,882.136 
		381.257,881.445 380.555,881.652 380.149,882.815 379.162,882.097 378.758,883.26 377.845,882.786 377.033,882.641 
		376.917,884.703 375.605,882.976 375.01,883.516 374.711,884.98 373.818,884.586 372.93,884.21 372.76,886.055 372.059,886.253 
		370.755,884.615 370.388,885.835 369.403,885.183 368.798,885.679 368.461,886.975 367.705,887.013 367.137,887.609 
		366.312,887.445 365.253,886.599 364.668,887.144 364.186,887.988 363.47,888.147 362.466,887.482 362.098,888.641 
		361.635,889.521 360.711,889.091 359.756,888.581 358.983,888.588 358.446,889.254 358.237,890.826 357.591,891.176 
		356.369,889.95 355.893,890.771 355.143,890.843 354.471,891.128 353.81,891.441 353.143,891.739 352.332,891.651 352.08,893.047 
		351.25,892.91 350.186,892.162 349.522,892.47 349.175,893.594 348.558,894.02 347.628,893.643 347.192,894.53 345.994,893.482 
		345.445,894.079 344.714,894.218 344.374,895.334 343.743,895.718 342.904,895.587 342.467,896.447 341.307,895.536 
		340.816,896.26 340.25,896.798 339.29,896.389 339.164,897.974 338.555,898.402 337.744,898.349 336.633,897.598 336.05,898.089 
		335.991,899.79 334.872,899.034 334.32,899.589 333.782,900.169 332.785,899.709 331.94,899.6 331.668,900.776 331.321,901.78 
		330.602,901.952 329.8,901.942 328.972,901.878 328.733,903.099 327.531,902.227 326.792,902.361 326.332,903.095 325.866,903.807 
		325.158,904.005 324.556,904.426 323.305,903.495 322.635,903.781 322.665,905.51 322.108,906.017 321.188,905.785 
		320.747,906.525 319.529,905.702 318.898,906.06 318.558,906.993 318.108,907.698 316.84,907.832 317.987,907.156 318.152,906.385 
		317.679,905.241 317.993,904.591 318.226,903.897 320.152,904.113 319.76,903.073 320.534,902.637 320.83,901.957 321.587,901.483 
		321.889,900.796 321.742,899.93 322.383,899.38 322.141,898.5 322.639,897.888 321.858,896.867 321.898,896.127 322.887,895.647 
		323.31,894.995 322.449,894.044 323.565,893.537 322.369,892.572 322.888,891.935 322.533,891.162 323.486,890.559 
		323.239,889.807 324.098,889.148 323.694,888.39 323.636,887.661 323.678,886.937 322.932,886.219 324.209,885.471 
		323.832,884.753 324.297,883.989 323.792,883.29 323.891,882.542 323.954,881.791 324.389,880.978 323.519,880.367 
		323.601,879.604 323.082,878.959 323.403,878.135 322.198,877.673 321.765,877.043 322.434,876.106 322.857,875.212 
		321.123,874.995 322.1,873.903 320.717,873.62 320.967,872.758 320.109,872.32 320.753,871.276 319.497,871.028 320.834,869.635 
		320.37,869.034 318.721,869.023 318.856,868.15 319.489,866.997 317.529,867.228 319.071,865.529 318.697,864.88 316.814,865.144 
		316.491,864.494 316.321,863.744 316.866,862.512 315.652,862.445 315.745,861.493 314.162,861.735 313.999,860.967 
		314.367,859.778 314.5,858.739 312.634,859.305 312.736,858.286 312.984,857.099 311.828,857.147 311.695,856.269 	"/>
	<polyline fill="none" stroke="#000000" stroke-miterlimit="10" points="309.989,849.063 310.927,848.65 310.674,847.736 
		311.178,847.112 311.623,846.449 310.45,845.425 312.219,844.994 310.388,844.003 312.033,843.417 311.427,842.641 310.937,841.92 
		310.819,841.215 310.671,840.521 311.292,839.692 311.509,838.88 311.81,838.003 310.573,837.596 310.814,836.712 309.243,836.592 
		309.969,835.444 309.306,834.964 308.117,834.851 308.646,833.648 308.043,833.182 308.288,832.043 307.34,831.865 307.129,831.05 
		305.886,831.239 305.459,830.646 304.423,830.736 304.969,828.968 304.049,828.931 303.522,828.409 303.152,827.653 
		302.704,826.979 301.58,827.359 301.456,826.154 300.549,826.232 300.062,825.587 299.319,825.403 298.199,825.982 
		298.153,824.415 297.318,824.444 296.184,825.173 295.372,825.23 295.189,823.788 294.195,824.296 294.025,822.705 
		292.762,823.985 292.32,823.06 291.946,821.886 290.719,823.253 290.179,822.567 289.393,822.648 288.835,821.977 288.429,820.737 
		287.243,822.239 286.85,820.894 286.301,820.062 285.228,821.316 284.682,820.467 283.696,821.454 283.343,819.703 
		282.566,819.776 281.75,820.075 280.951,820.296 280.108,820.773 280.056,819.537 280.12,818.992 280.665,818.367 281.282,817.936 
		282.232,818.421 283.082,818.637 283.596,817.917 284.638,818.682 285.382,818.614 286.009,818.219 286.688,817.969 
		286.737,815.895 287.485,815.833 288.374,816.188 289.253,816.522 289.857,816.045 290.499,815.679 290.901,814.588 291.71,814.72 
		292.798,815.709 293.564,815.726 294.031,814.819 294.929,815.246 295.646,815.113 296.195,814.451 296.822,814.03 
		297.308,813.152 298.073,813.17 298.743,812.879 299.335,812.333 300.157,812.542 300.824,812.241 301.625,812.387 
		302.503,812.797 302.9,811.585 303.752,811.912 304.301,811.201 305.192,811.674 305.503,810.129 306.754,811.868 307.435,811.622 
		308.045,811.116 308.361,809.552 309.075,809.406 309.714,808.991 310.728,809.945 311.193,808.891 312.162,809.698 
		312.51,808.191 313.458,808.931 314.18,808.825 314.941,808.866 315.73,809.023 316.526,809.208 317.128,808.645 317.755,808.168 
		318.562,808.406 318.854,806.591 319.9,807.786 320.369,806.661 321.274,807.303 321.948,807.006 322.847,807.641 323.548,807.463 
		324.15,806.867 324.772,806.346 325.459,806.099 326.161,805.919 326.656,804.839 327.347,804.599 328.43,806.083 329.086,805.702 
		329.553,804.469 330.185,803.965 331.142,804.929 332.002,805.466 332.503,804.364 333.015,803.299 333.694,802.994 334.7,804.232 
		335.151,802.855 336.269,804.647 336.58,802.586 337.259,802.279 338.03,802.419 339.027,803.68 339.735,803.523 340.381,803.057 
		341.069,802.801 341.923,803.383 342.539,802.761 342.985,801.251 343.985,802.6 344.472,801.284 345.416,802.367 345.957,801.32 
		346.879,802.306 347.259,800.373 348.117,801.022 349.061,802.152 349.526,800.649 350.212,800.365 351.109,801.261 
		351.757,800.76 352.514,800.875 353.127,800.165 354.031,801.139 354.606,800.199 355.203,799.376 356.123,800.473 356.856,800.46 
		357.384,799.204 358.129,799.261 358.755,798.586 359.533,798.841 360.183,798.307 361.13,799.642 361.744,798.877 
		362.422,798.509 363.048,797.804 363.955,798.926 364.632,798.556 365.234,797.675 366.101,798.565 366.675,797.48 367.51,798.17 
		368.257,798.263 368.997,798.314 369.525,796.871 370.507,798.629 370.94,796.491 371.691,796.609 372.659,798.32 373.261,797.367 
		374.006,797.461 374.649,796.789 375.484,797.568 376.203,797.47 376.762,796.139 377.525,796.373 378.239,796.228 
		379.043,796.801 379.721,796.372 380.344,795.489 381.186,796.386 381.994,797.019 382.487,795.037 383.244,795.245 384.1,796.303 
		384.698,795.165 385.585,796.513 386.263,796.06 386.913,795.339 387.671,795.582 388.377,795.363 389.19,796.123 389.853,795.504 
		390.644,796.07 391.229,794.705 392.06,795.668 392.685,794.66 393.429,794.793 394.049,793.709 394.826,794.167 395.506,793.653 
		396.234,793.628 397.031,794.315 397.812,794.849 398.552,794.962 399.222,794.336 399.854,793.276 400.731,794.882 
		401.317,793.308 402.087,793.745 402.874,794.405 403.491,793.116 404.363,794.774 405.026,794.003 405.753,793.982 
		406.462,793.754 407.112,792.789 407.826,792.596 408.659,793.883 409.404,794.105 410.151,794.353 410.716,792.225 
		411.519,793.192 412.294,793.814 412.891,792.037 413.692,793.031 414.433,793.198 415.067,791.862 415.853,792.673 
		416.533,791.971 417.315,792.75 418.089,793.44 418.699,791.655 419.541,793.396 420.281,793.591 420.968,792.95 421.691,792.886 
		422.375,792.166 423.13,792.62 423.849,792.462 424.531,791.667 425.305,792.476 425.988,791.671 426.693,791.241 427.472,792.191 
		428.245,793.043 428.969,792.988 429.673,792.535 430.383,792.193 431.155,793.087 431.792,791.254 432.541,791.68 
		433.243,791.127 433.983,791.378 434.726,791.727 435.455,791.752 436.178,791.657 436.884,791.146 437.599,790.823 
		438.337,791.08 439.088,791.656 439.824,791.891 440.575,792.535 441.247,791.044 441.984,791.305 442.731,791.856 443.41,790.437 
		444.137,790.4 444.87,790.569 445.61,790.959 446.336,790.884 447.05,790.433 447.785,790.67 448.54,791.651 449.271,791.789 
		449.959,790.326 450.683,790.175 451.453,791.863 452.144,790.388 452.875,790.498 453.625,791.542 454.354,791.65 
		455.076,791.416 455.815,792.043 456.525,791.161 457.234,790.138 457.966,790.39 458.692,790.28 459.426,790.69 460.144,790.002 
		460.888,791.174 461.6,790.065 462.349,791.757 463.061,790.465 463.792,790.821 464.515,790.385 465.257,792.06 465.97,790.421 
		466.701,790.897 467.423,790.021 468.156,791.027 468.886,791.48 469.607,790.199 470.335,790.342 471.062,790.168 
		471.793,791.786 472.52,791.749 473.245,789.957 473.973,791.868 474.7,791.143 475.429,789.946 476.154,791.165 476.883,790.534 
		477.605,791.726 478.338,790.519 479.063,790.996 479.793,790.586 480.519,790.743 481.238,791.838 481.981,789.956 
		482.705,790.328 483.426,791.048 484.151,791.208 484.878,791.253 485.616,790.325 486.336,790.948 487.065,790.797 
		487.794,790.706 488.507,791.669 489.258,790.183 489.952,792.191 490.69,791.562 491.444,790.084 492.157,790.866 
		492.871,791.549 493.594,791.762 494.348,790.504 495.068,790.866 495.8,790.671 496.52,791.034 497.248,791.022 497.943,792.326 
		498.676,792.083 499.414,791.689 500.145,791.555 500.859,792.046 501.609,791.237 502.308,792.235 503.057,791.508 
		503.776,791.813 504.529,790.988 505.239,791.556 505.944,792.256 506.713,791.006 507.401,792.212 508.142,791.811 
		508.91,790.683 509.635,790.777 510.308,792.303 511.067,791.462 511.746,792.762 512.507,791.894 513.252,791.477 
		513.971,791.694 514.698,791.735 515.44,791.407 516.121,792.561 516.86,792.28 517.579,792.51 518.375,790.938 519.057,792.007 
		519.814,791.378 520.526,791.753 521.288,791.037 521.987,791.67 522.718,791.635 523.377,793.089 524.1,793.197 524.897,791.794 
		525.616,791.99 526.283,793.225 527.037,792.726 527.774,792.569 528.549,791.679 529.258,792.065 529.945,792.85 530.654,793.219 
		531.427,792.409 532.104,793.347 532.878,792.54 533.648,791.829 534.349,792.324 535.104,791.878 535.722,793.781 
		536.531,792.434 537.24,792.788 537.969,792.781 538.627,793.961 539.347,794.095 540.077,794.087 540.867,793.118 
		541.559,793.705 542.361,792.566 543.107,792.316 543.781,793.177 544.56,792.439 545.227,793.391 545.985,792.973 
		546.638,794.111 547.427,793.238 548.053,794.737 548.807,794.381 549.534,794.429 550.32,793.626 551.054,793.574 
		551.774,793.717 552.44,794.606 553.153,794.827 554.003,793.202 554.598,795.026 555.416,793.845 556.045,795.193 
		556.905,793.475 557.492,795.364 558.264,794.807 559.078,793.738 559.765,794.29 560.508,794.135 561.266,793.803 561.84,795.758 
		562.739,793.667 563.346,795.2 564.163,794.133 564.909,793.962 565.499,795.669 566.344,794.287 566.932,795.993 567.674,795.865 
		568.547,794.192 569.15,795.685 569.831,796.27 570.544,796.466 571.317,795.981 572.041,796.065 572.831,795.395 573.561,795.412 
		574.203,796.409 574.891,796.885 575.662,796.444 576.538,794.854 577.216,795.45 577.862,796.375 578.642,795.855 579.335,796.27 
		580.111,795.799 580.796,796.295 581.473,796.867 582.298,795.892 582.999,796.212 583.719,796.334 584.391,796.954 
		585.12,796.987 585.911,796.385 586.677,796.043 587.231,797.836 588.035,797.119 588.678,798.002 589.526,796.846 590.132,798.1 
		590.972,797.039 591.766,796.433 592.36,797.783 593.14,797.322 593.794,798.08 594.54,797.945 595.351,797.202 596.002,797.973 
		596.78,797.55 597.471,797.946 598.152,798.427 598.821,799.013 599.527,799.259 600.309,798.804 601.036,798.852 601.855,798.067 
		602.547,798.438 603.286,798.391 603.863,799.794 604.768,798.249 605.345,799.646 606.095,799.489 606.873,799.095 
		607.571,799.404 608.397,798.587 609.011,799.632 609.768,799.424 610.385,800.432 611.228,799.492 611.835,800.569 
		612.792,798.667 613.489,798.981 614.22,799.007 614.94,799.123 615.609,799.674 616.318,799.881 617.096,799.513 617.676,800.793 
		618.333,801.428 619.093,801.21 619.942,800.264 620.652,800.461 621.422,800.172 622.195,799.859 622.799,800.918 
		623.392,802.048 624.159,801.78 625.023,800.745 625.758,800.742 626.351,801.868 627.068,802.003 627.828,801.8 628.551,801.892 
		629.402,800.983 630.102,801.251 630.729,802.086 631.443,802.248 632.232,801.832 632.969,801.813 633.551,802.985 
		634.489,801.439 635.133,802.129 635.898,801.907 636.639,801.868 637.174,803.367 638.052,802.302 638.831,801.975 
		639.473,802.667 640.024,804.026 640.974,802.448 641.666,802.773 642.295,803.553 642.896,804.526 643.857,802.89 
		644.419,804.143 645.237,803.551 646.009,803.292 646.659,803.91 647.438,803.604 648.182,803.544 648.69,805.16 649.658,803.518 
		650.376,803.646 651.019,804.304 651.552,805.728 652.531,804.033 653.112,805.11 653.818,805.319 654.448,806.048 
		655.393,804.613 655.865,806.427 656.831,804.856 657.524,805.154 658.176,805.726 658.923,805.654 659.754,805.02 
		660.354,805.944 660.928,807.031 661.893,805.504 662.396,807.062 663.317,805.839 663.834,807.296 664.546,807.459 
		665.323,807.194 665.981,807.71 666.771,807.363 667.377,808.216 668.389,806.419 668.989,807.313 669.713,807.403 
		670.293,808.416 671.144,807.683 671.848,807.894 672.541,808.178 673.335,807.818 674.14,807.388 674.878,807.386 675.59,807.552 
		676.297,807.748 676.865,808.814 677.6,808.829 678.399,808.445 679.21,807.994 679.937,808.059 680.663,808.14 681.103,809.983 
		681.79,810.296 682.505,810.434 683.34,809.84 684.234,808.88 684.935,809.11 685.433,810.577 686.314,809.71 686.846,810.959 
		687.751,809.949 688.226,811.537 689.199,810.123 689.872,810.518 690.616,810.487 691.135,811.794 691.939,811.403 
		692.725,811.12 693.529,810.735 694.121,811.603 694.721,812.42 695.728,810.842 696.388,811.302 697.183,810.976 697.841,811.452 
		698.39,812.559 699.246,811.879 700.02,811.677 700.642,812.355 701.331,812.644 702.129,812.306 702.764,812.903 703.298,814.075 
		704.143,813.47 704.934,813.177 705.704,813.001 706.169,814.558 707.162,813.123 707.742,814.022 708.595,813.386 709.307,813.54 
		710.08,813.353 710.581,814.685 711.195,815.384 712.008,814.978 712.859,814.357 713.346,815.757 714.256,814.816 
		714.813,815.823 715.564,815.763 716.433,815.054 717.126,815.313 717.657,816.447 718.443,816.198 719.325,815.431 
		720.058,815.468 720.763,815.659 721.499,815.683 721.964,817.161 722.784,816.738 723.483,816.958 724.112,817.549 
		725.016,816.68 725.505,818.01 726.315,817.641 727.203,816.862 727.868,817.265 728.5,817.836 729.173,818.19 730.07,817.371 
		730.815,817.348 731.376,818.291 731.936,819.228 732.789,818.644 733.514,818.728 734.182,819.102 734.8,819.735 735.543,819.723 
		736.578,818.215 737.018,819.761 737.614,820.498 738.49,819.809 739.067,820.644 739.862,820.372 740.556,820.608 
		741.589,819.136 742.242,819.579 742.983,819.583 743.725,819.583 744.387,819.982 745.079,820.233 745.489,821.888 
		746.296,821.561 747.311,820.205 747.93,820.813 748.332,822.493 749.205,821.844 750.166,820.766 750.56,822.477 751.205,822.953 
		752.194,821.743 752.796,822.424 753.444,822.883 754.35,822.088 755.137,821.872 755.792,822.293 756.471,822.599 
		757.243,822.456 757.951,822.624 758.372,824.163 759.346,823.056 759.704,824.892 760.418,825.026 761.41,823.835 
		762.167,823.766 762.981,823.429 763.577,824.122 764.303,824.2 764.774,825.479 765.688,824.673 766.442,824.62 766.831,826.273 
		767.742,825.486 768.247,826.592 769.151,825.839 770.046,825.135 770.437,826.762 771.356,825.946 771.83,827.187 
		772.891,825.718 773.634,825.722 773.894,827.933 774.85,826.955 775.378,827.939 776.073,828.155 776.735,828.517 777.81,827.01 
		778.263,828.324 779.056,828.094 779.62,828.899 780.326,829.064 781.216,828.405 781.781,829.2 782.576,828.965 783.384,828.677 
		784.199,828.353 784.926,828.426 785.508,829.142 786.26,829.102 786.693,830.47 787.367,830.77 788.192,830.41 789.101,829.681 
		789.538,831.02 790.523,829.982 791.33,829.726 791.965,830.218 792.438,831.408 793.43,830.35 794.122,830.591 794.611,831.704 
		795.242,832.2 796.119,831.644 796.835,831.777 797.524,832.024 798.169,832.458 798.769,833.079 799.483,833.213 800.186,833.397 
		801.234,832.123 801.533,834.005 802.582,832.728 802.907,834.494 803.723,834.196 804.594,833.672 805.408,833.384 805.837,834.7 
		806.79,833.835 807.104,835.612 807.962,835.141 808.951,834.135 809.255,835.938 810.108,835.491 811.01,834.84 811.584,835.531 
		812.464,834.973 812.857,836.387 813.692,836.011 814.466,835.881 814.929,836.997 815.867,836.207 816.415,836.975 
		817.047,837.404 818.047,836.37 818.483,837.579 819.327,837.172 819.85,838.036 820.687,837.68 821.407,837.776 821.906,838.723 
		823.003,837.342 823.68,837.588 824.244,838.276 824.967,838.355 825.435,839.394 826.014,840.002 826.72,840.116 827.492,840.001 
		828.53,839.927 827.563,839.17 826.847,838.811 826.096,839.562 825.365,839.656 824.669,838.728 823.946,838.63 823.177,840.092 
		822.438,840.558 821.722,840.252 821.029,839.087 820.264,840.498 819.577,839.026 818.857,838.756 818.117,839.23 817.363,840.3 
		816.68,838.448 815.924,839.603 815.176,840.497 814.49,838.727 813.723,840.452 813.029,838.98 812.31,838.61 811.559,839.727 
		810.82,840.356 810.108,839.616 809.381,839.668 808.669,838.915 807.933,839.434 807.209,839.282 806.492,838.786 
		805.739,840.254 805.031,839.252 804.322,838.225 803.583,838.975 802.849,839.442 802.126,839.229 801.416,838.169 
		800.664,839.83 799.945,839.366 799.21,839.998 798.491,839.538 797.777,838.629 797.046,838.99 796.324,838.615 795.604,838.065 
		794.864,839.224 794.14,839.073 793.407,840.119 792.704,838.414 791.977,838.916 791.254,839.022 790.537,838.591 
		789.803,839.896 789.088,839.175 788.361,839.743 787.652,838.284 786.93,838.233 786.198,839.412 785.472,839.95 784.754,839.464 
		784.041,837.959 783.306,839.932 782.592,838.61 781.863,839.761 781.149,838.217 780.419,839.579 779.696,839.769 
		778.975,839.321 778.253,839.2 777.531,838.873 776.806,839.51 776.084,839.116 775.362,838.584 774.639,838.527 773.914,839.557 
		773.193,838.251 772.468,838.876 771.744,839.738 771.021,838.773 770.298,839.383 769.574,839.391 768.85,838.358 
		768.126,838.267 767.404,839.555 766.678,838.192 765.956,839.088 765.233,839.899 764.509,839.7 763.785,839.647 763.056,837.891 
		762.335,838.773 761.612,839.158 760.883,838.063 760.16,838.286 759.443,839.992 758.717,839.667 757.989,838.903 
		757.264,838.745 756.54,838.823 755.812,838.341 755.097,839.746 754.369,839.286 753.638,838.41 752.914,838.5 752.194,839.109 
		751.473,839.617 750.751,839.829 750.011,838.091 749.295,839.151 748.574,839.598 747.845,839.102 747.128,839.944 
		746.406,840.168 745.664,838.523 744.937,838.373 744.221,839.21 743.493,838.99 742.775,839.605 742.055,840.058 741.315,838.802 
		740.607,840.148 739.861,838.602 739.153,839.926 738.421,839.413 737.693,839.257 736.983,840.274 736.23,838.393 
		735.522,839.568 734.805,840.161 734.076,839.924 733.351,839.932 732.6,838.374 731.883,838.944 731.176,840.038 730.451,840.092 
		729.708,839.114 728.972,838.542 728.259,839.266 727.552,840.277 726.817,839.761 726.1,840.239 725.363,839.647 724.63,839.306 
		723.903,839.288 723.161,838.469 722.466,840.023 721.733,839.693 720.998,839.271 720.284,839.821 719.553,839.601 
		718.827,839.626 718.085,838.927 717.394,840.497 716.642,839.364 715.926,839.804 715.213,840.386 714.482,840.186 
		713.726,838.958 713.037,840.506 712.309,840.42 711.565,839.756 710.811,838.695 710.131,840.472 709.412,840.763 708.646,839.3 
		707.936,839.905 707.194,839.335 706.487,840.082 705.724,838.783 705.035,840.135 704.299,839.802 703.57,839.753 
		702.859,840.277 702.139,840.531 701.407,840.355 700.659,839.643 699.969,840.875 699.215,839.983 698.52,841.011 
		697.784,840.707 697.015,839.387 696.305,839.944 695.571,839.726 694.832,839.371 694.103,839.339 693.434,841.092 
		692.664,839.818 691.919,839.294 691.238,840.669 690.501,840.371 689.739,839.382 689.08,841.334 688.302,839.917 
		687.589,840.308 686.873,840.636 686.104,839.518 685.398,840.102 684.654,839.658 683.992,841.415 683.244,840.874 
		682.468,839.609 681.811,841.391 681.036,840.125 680.32,840.394 679.609,840.766 678.873,840.502 678.149,840.549 677.457,841.39 
		676.71,840.874 675.981,840.808 675.293,841.732 674.559,841.54 673.851,841.949 673.097,841.304 672.358,841.009 671.674,841.972 
		670.948,841.973 670.188,841.205 669.496,841.994 668.742,841.375 668.03,841.693 667.298,841.564 666.535,840.76 665.854,841.764 
		665.08,840.748 664.418,842.131 663.649,841.237 662.914,841.063 662.222,841.806 661.508,842.055 660.795,842.353 
		660.017,841.307 659.268,840.869 658.543,840.901 657.84,841.39 657.096,841.062 656.425,842.18 655.688,841.992 654.966,842.098 
		654.175,840.868 653.558,842.993 652.748,841.415 652.045,841.885 651.284,841.239 650.595,841.969 649.866,841.952 
		649.111,841.452 648.431,842.335 647.729,842.799 646.98,842.408 646.252,842.403 645.521,842.346 644.842,843.223 
		644.022,841.582 643.393,843.324 642.561,841.518 641.885,842.429 641.157,842.433 640.504,843.707 639.693,842.297 
		639.056,843.846 638.282,843.076 637.495,842.088 636.866,843.739 636.062,842.485 635.426,844.009 634.585,842.172 
		633.882,842.585 633.239,843.973 632.441,842.854 631.681,842.353 631.027,843.536 630.268,843.064 629.587,843.805 
		628.89,844.309 628.071,842.909 627.404,843.852 626.707,844.345 625.886,842.947 625.16,842.992 624.423,842.876 623.763,843.911 
		623.061,844.314 622.294,843.753 621.595,844.201 620.829,843.656 620.061,843.092 619.32,842.936 618.596,843.019 
		617.988,844.759 617.172,843.526 616.459,843.758 615.792,844.635 615.094,845.077 614.32,844.463 613.579,844.297 612.86,844.454 
		612.083,843.799 611.357,843.858 610.714,845.035 609.95,844.573 609.26,845.115 608.504,844.763 607.734,844.239 607.12,845.756 
		606.279,844.302 605.67,845.887 604.835,844.518 604.095,844.401 603.346,844.167 602.659,844.715 601.921,844.624 
		601.261,845.519 600.555,845.82 599.762,845.042 599.141,846.39 598.278,844.734 597.686,846.424 596.968,846.558 596.235,846.511 
		595.383,845.03 594.814,846.97 593.967,845.556 593.21,845.23 592.54,845.941 591.8,845.829 591.107,846.267 590.357,846.027 
		589.697,846.838 589.014,847.39 588.186,846.257 587.394,845.546 586.683,845.767 585.992,846.222 585.218,845.728 
		584.593,846.927 583.873,847.045 583.111,846.688 582.347,846.316 581.738,847.663 581.052,848.152 580.293,847.84 
		579.548,847.687 578.87,848.255 578.073,847.543 577.286,846.943 576.551,846.897 575.934,848.111 575.219,848.281 
		574.492,848.327 573.805,848.789 573.066,848.702 572.349,848.85 571.519,847.829 570.872,848.702 570.066,847.937 569.39,848.506 
		568.538,847.282 567.897,848.2 567.139,847.94 566.372,847.592 565.628,847.477 564.91,847.619 564.343,849.259 563.515,848.316 
		562.73,847.802 562.216,849.928 561.423,849.331 560.713,849.55 559.931,849.077 559.325,850.285 558.44,848.823 557.818,849.874 
		556.936,848.466 556.381,850.139 555.494,848.702 554.924,850.219 554.079,849.173 553.502,850.621 552.746,850.403 
		552.048,850.723 551.214,849.801 550.608,850.953 549.847,850.701 549.1,850.577 548.454,851.36 547.603,850.315 546.854,850.172 
		546.086,849.873 545.501,851.178 544.688,850.488 544.08,851.581 543.313,851.297 542.518,850.769 541.832,851.181 
		541.173,851.818 540.456,851.961 539.641,851.275 538.831,850.643 538.225,851.72 537.475,851.592 536.869,852.659 
		536.076,852.172 535.378,852.473 534.594,852.061 533.859,852.06 533.124,852.063 532.388,852.052 531.734,852.704 
		531.049,853.102 530.327,853.208 529.419,851.823 528.891,853.477 528.129,853.256 527.455,853.738 526.758,854.039 
		525.882,852.939 525.25,853.741 524.384,852.731 523.793,853.849 522.962,853.113 522.148,852.516 521.46,852.883 520.933,854.472 
		520.118,853.871 519.39,853.935 518.696,854.245 518.018,854.683 517.089,853.25 516.386,853.498 515.688,853.784 515.077,854.705 
		514.209,853.747 513.666,855.154 513.007,855.713 512.281,855.787 511.296,854.005 510.795,855.697 509.982,855.155 
		509.364,855.998 508.686,856.407 507.87,855.853 507.245,856.638 506.52,856.717 505.502,854.771 505.021,856.541 504.086,855.186 
		503.501,856.231 502.809,856.544 502.052,856.413 501.359,856.716 500.482,855.781 499.764,855.918 499.187,856.995 
		498.426,856.842 497.662,856.674 497.102,857.851 496.194,856.734 495.485,856.926 494.663,856.39 494.266,858.603 
		493.383,857.669 492.732,858.233 491.811,857.07 491.349,858.835 490.378,857.363 489.853,858.719 488.904,857.395 
		488.314,858.334 487.593,858.45 486.855,858.462 486.137,858.596 485.376,858.467 484.855,859.805 484.009,859.156 
		483.405,859.982 482.394,858.339 481.845,859.493 481.087,859.391 480.365,859.499 479.692,859.904 478.888,859.527 
		478.111,859.312 477.613,860.74 476.631,859.327 476.245,861.403 475.466,861.176 474.654,860.761 474.04,861.497 473.383,861.975 
		472.667,862.115 471.774,861.252 470.88,860.388 470.5,862.432 469.757,862.417 468.992,862.284 468.032,861.07 467.271,860.966 
		466.681,861.809 465.918,861.697 465.288,862.317 464.768,863.53 463.88,862.737 463.112,862.596 462.372,862.611 461.864,863.873 
		461.139,863.965 460.087,862.32 459.388,862.555 458.903,863.923 458.072,863.461 457.474,864.226 456.646,863.783 
		455.967,864.118 455.333,864.687 454.471,864.079 454.008,865.52 453.071,864.532 452.272,864.251 451.736,865.309 
		450.995,865.324 450.126,864.699 449.374,864.668 448.961,866.324 447.982,865.156 447.459,866.256 446.759,866.479 
		445.815,865.502 445.087,865.589 444.498,866.352 443.722,866.208 442.901,865.846 442.304,866.566 441.746,867.461 
		440.717,866.116 440.105,866.757 439.684,868.293 438.849,867.877 438.212,868.389 437.383,868.002 436.876,869.112 
		436.164,869.272 435.225,868.385 434.609,868.99 433.868,869.017 433.324,869.94 432.364,868.975 431.64,869.083 430.92,869.211 
		430.192,869.3 429.699,870.437 428.686,869.264 428.087,869.924 427.239,869.49 426.802,870.856 425.887,870.132 425.058,869.79 
		424.759,871.735 423.632,870.11 423.061,870.877 422.363,871.101 421.473,870.507 420.98,871.597 420.501,872.739 419.775,872.835 
		419.079,873.06 418.249,872.729 417.405,872.345 416.793,872.918 415.946,872.526 415.202,872.556 414.826,874.083 
		414.156,874.412 412.974,872.678 412.72,874.678 412.019,874.876 411.14,874.372 410.135,873.373 409.895,875.399 408.786,873.998 
		408.263,874.901 407.31,874.125 406.794,875.049 406.341,876.207 405.523,875.959 404.605,875.336 404.234,876.795 
		403.511,876.909 402.685,876.638 402.02,876.977 401.222,876.817 400.368,876.449 399.606,876.429 399.205,877.738 
		398.595,878.279 397.797,878.127 396.899,877.62 396.429,878.659 395.399,877.683 394.96,878.83 394.05,878.29 393.602,879.397 
		392.826,879.336 392.002,879.109 391.593,880.338 390.637,879.651 390.062,880.294 388.95,879.08 388.705,880.855 387.765,880.241 
		387.338,881.381 386.359,880.642 385.937,881.789 385.096,881.52 384.34,881.54 383.578,881.543 382.973,882.064 382.231,882.136 
		381.257,881.445 380.555,881.652 380.149,882.815 379.162,882.097 378.758,883.26 377.845,882.786 377.033,882.641 
		376.917,884.703 375.605,882.976 375.01,883.516 374.711,884.98 373.818,884.586 372.93,884.21 372.76,886.055 372.059,886.253 
		370.755,884.615 370.388,885.835 369.403,885.183 368.798,885.679 368.461,886.975 367.705,887.013 367.137,887.609 
		366.312,887.445 365.253,886.599 364.668,887.144 364.186,887.988 363.47,888.147 362.466,887.482 362.098,888.641 
		361.635,889.521 360.711,889.091 359.756,888.581 358.983,888.588 358.446,889.254 358.237,890.826 357.591,891.176 
		356.369,889.95 355.893,890.771 355.143,890.843 354.471,891.128 353.81,891.441 353.143,891.739 352.332,891.651 352.08,893.047 
		351.25,892.91 350.186,892.162 349.522,892.47 349.175,893.594 348.558,894.02 347.628,893.643 347.192,894.53 345.994,893.482 
		345.445,894.079 344.714,894.218 344.374,895.334 343.743,895.718 342.904,895.587 342.467,896.447 341.307,895.536 
		340.816,896.26 340.25,896.798 339.29,896.389 339.164,897.974 338.555,898.402 337.744,898.349 336.633,897.598 336.05,898.089 
		335.991,899.79 334.872,899.034 334.32,899.589 333.782,900.169 332.785,899.709 331.94,899.6 331.668,900.776 331.321,901.78 
		330.602,901.952 329.8,901.942 328.972,901.878 328.733,903.099 327.531,902.227 326.792,902.361 326.332,903.095 325.866,903.807 
		325.158,904.005 324.556,904.426 323.305,903.495 322.635,903.781 322.665,905.51 322.108,906.017 321.188,905.785 
		320.747,906.525 319.529,905.702 318.898,906.06 318.558,906.993 318.108,907.698 316.84,907.832 317.987,907.156 318.152,906.385 
		317.679,905.241 317.993,904.591 318.226,903.897 320.152,904.113 319.76,903.073 320.534,902.637 320.83,901.957 321.587,901.483 
		321.889,900.796 321.742,899.93 322.383,899.38 322.141,898.5 322.639,897.888 321.858,896.867 321.898,896.127 322.887,895.647 
		323.31,894.995 322.449,894.044 323.565,893.537 322.369,892.572 322.888,891.935 322.533,891.162 323.486,890.559 
		323.239,889.807 324.098,889.148 323.694,888.39 323.636,887.661 323.678,886.937 322.932,886.219 324.209,885.471 
		323.832,884.753 324.297,883.989 323.792,883.29 323.891,882.542 323.954,881.791 324.389,880.978 323.519,880.367 
		323.601,879.604 323.082,878.959 323.403,878.135 322.198,877.673 321.765,877.043 322.434,876.106 322.857,875.212 
		321.123,874.995 322.1,873.903 320.717,873.62 320.967,872.758 320.109,872.32 320.753,871.276 319.497,871.028 320.834,869.635 
		320.37,869.034 318.721,869.023 318.856,868.15 319.489,866.997 317.529,867.228 319.071,865.529 318.697,864.88 316.814,865.144 
		316.491,864.494 316.321,863.744 316.866,862.512 315.652,862.445 315.745,861.493 314.162,861.735 313.999,860.967 
		314.367,859.778 314.5,858.739 312.634,859.305 312.736,858.286 312.984,857.099 311.828,857.147 311.695,856.269 	"/>
</g>
<path fill="#989899" stroke="#000000" stroke-miterlimit="10" d="M202.504,915.099c136.576-140.067,641.641-71.245,641.641-71.245
	l3.299-3.926c0,0-512.337-71.43-645.896,65.788l-6.567,13.244L202.504,915.099z"/>
</svg>
